<svg width="198" height="79" xmlns="http://www.w3.org/2000/svg">
    <path fill="white" d="M0 0L0 13.9 11 13.9 11 10.3 60.7 10.3 60.7 0 0 0ZM65.8 0L99.2 58.1 132.6 0 120.7 0C120.7 0 100.5 34.9 99.2 37.2 97.9 34.9 77.8 0 77.8 0L65.8 0ZM137.8 0L137.8 13.9 148.7 13.9 148.7 10.3 198.4 10.3 198.4 0 137.8 0ZM0 19.1L0 29.5 60.7 29.5 60.7 19.1 0 19.1ZM137.8 19.1L137.8 29.5 198.4 29.5 198.4 19.1 137.8 19.1ZM0 34.7L0 48.6 60.7 48.6 60.7 38.3 11 38.3 11 34.7 0 34.7ZM137.8 34.7L137.8 48.6 198.4 48.6 198.4 38.3 148.7 38.3 148.7 34.7 137.8 34.7ZM42.2 69.7C41.3 69.7 40.7 69.9 40.4 70.2 40.1 70.5 40 71 40 71.8L40 76.6C40 77.4 40.1 77.9 40.4 78.2 40.7 78.5 41.3 78.7 42.2 78.7L48.7 78.7C49.6 78.7 50.2 78.5 50.5 78.2 50.8 77.9 51 77.4 51 76.6L51 71.8C51 71 50.8 70.5 50.5 70.2 50.2 69.9 49.6 69.7 48.7 69.7L42.2 69.7ZM64.4 69.7L64.4 78.7 66.3 78.7 66.3 73.8C66.3 73.7 66.2 73.4 66.2 73.2 66.2 72.9 66.2 72.7 66.2 72.4 66.3 72.5 66.4 72.7 66.5 72.8 66.6 72.9 66.8 73 66.9 73.2L73.5 78.7 74.9 78.7 74.9 69.7 73 69.7 73 74.4C73 74.5 73.1 74.7 73.1 74.9 73.1 75.1 73.1 75.5 73.1 76 73 75.8 72.8 75.7 72.7 75.5 72.5 75.4 72.3 75.2 72.1 75L65.8 69.7 64.4 69.7ZM88.5 69.7L88.5 78.7 97.3 78.7 97.3 77 90.6 77 90.6 69.7 88.5 69.7ZM109.4 69.7L109.4 78.7 111.5 78.7 111.5 69.7 109.4 69.7ZM125.1 69.7L125.1 78.7 127 78.7 127 73.8C127 73.7 127 73.4 126.9 73.2 126.9 72.9 126.9 72.7 126.9 72.4 127 72.5 127.1 72.7 127.2 72.8 127.3 72.9 127.5 73 127.6 73.2L134.2 78.7 135.6 78.7 135.6 69.7 133.8 69.7 133.8 74.4C133.8 74.5 133.8 74.7 133.8 74.9 133.8 75.1 133.8 75.5 133.8 76 133.7 75.8 133.6 75.7 133.4 75.5 133.2 75.4 133 75.2 132.8 75L126.5 69.7 125.1 69.7ZM149.3 69.7L149.3 78.7 158.5 78.7 158.5 77 151.3 77 151.3 74.8 155.4 74.8 155.4 73.3 151.3 73.3 151.3 71.3 158.4 71.3 158.4 69.7 149.3 69.7ZM42 71.3L48.9 71.3 48.9 77 42 77 42 71.3Z" />
</svg>
